<svg xmlns="http://www.w3.org/2000/svg" viewBox="0 0 800 480" width="800" height="480">
  <defs>
    <linearGradient id="abg" x1="0%" y1="0%" x2="100%" y2="100%">
      <stop offset="0%" style="stop-color:#0d1117" />
      <stop offset="100%" style="stop-color:#161b22" />
    </linearGradient>
  </defs>

  <rect width="800" height="480" rx="12" fill="url(#abg)" />

  <!-- pawan-cli box -->
  <rect x="280" y="20" width="240" height="60" rx="8" fill="#1f6feb" fill-opacity="0.2" stroke="#58a6ff" stroke-width="1.5" />
  <text x="400" y="55" text-anchor="middle" font-family="monospace" font-size="16" font-weight="700" fill="#58a6ff">pawan-cli</text>

  <!-- TUI and Headless boxes -->
  <rect x="160" y="110" width="140" height="44" rx="6" fill="#161b22" stroke="#30363d" />
  <text x="230" y="137" text-anchor="middle" font-family="monospace" font-size="12" fill="#c9d1d9">TUI (ratatui)</text>

  <rect x="330" y="110" width="140" height="44" rx="6" fill="#161b22" stroke="#30363d" />
  <text x="400" y="137" text-anchor="middle" font-family="monospace" font-size="12" fill="#c9d1d9">Headless (run)</text>

  <rect x="500" y="110" width="140" height="44" rx="6" fill="#161b22" stroke="#30363d" />
  <text x="570" y="137" text-anchor="middle" font-family="monospace" font-size="12" fill="#c9d1d9">AI Workflows</text>

  <!-- Lines from cli to modes -->
  <line x1="350" y1="80" x2="230" y2="110" stroke="#30363d" stroke-width="1" />
  <line x1="400" y1="80" x2="400" y2="110" stroke="#30363d" stroke-width="1" />
  <line x1="450" y1="80" x2="570" y2="110" stroke="#30363d" stroke-width="1" />

  <!-- pawan-core box -->
  <rect x="120" y="190" width="400" height="180" rx="8" fill="#f97316" fill-opacity="0.08" stroke="#f97316" stroke-width="1.5" />
  <text x="320" y="215" text-anchor="middle" font-family="monospace" font-size="16" font-weight="700" fill="#f97316">pawan-core</text>

  <!-- Core components -->
  <rect x="140" y="230" width="110" height="36" rx="4" fill="#161b22" stroke="#30363d" />
  <text x="195" y="253" text-anchor="middle" font-family="monospace" font-size="11" fill="#8b949e">Agent Loop</text>

  <rect x="265" y="230" width="110" height="36" rx="4" fill="#161b22" stroke="#30363d" />
  <text x="320" y="253" text-anchor="middle" font-family="monospace" font-size="11" fill="#8b949e">17 Tools</text>

  <rect x="390" y="230" width="110" height="36" rx="4" fill="#161b22" stroke="#30363d" />
  <text x="445" y="253" text-anchor="middle" font-family="monospace" font-size="11" fill="#8b949e">Config</text>

  <rect x="140" y="280" width="110" height="36" rx="4" fill="#161b22" stroke="#30363d" />
  <text x="195" y="303" text-anchor="middle" font-family="monospace" font-size="11" fill="#8b949e">LLM Backend</text>

  <rect x="265" y="280" width="110" height="36" rx="4" fill="#161b22" stroke="#30363d" />
  <text x="320" y="303" text-anchor="middle" font-family="monospace" font-size="11" fill="#8b949e">Healing</text>

  <rect x="390" y="280" width="110" height="36" rx="4" fill="#161b22" stroke="#30363d" />
  <text x="445" y="303" text-anchor="middle" font-family="monospace" font-size="11" fill="#8b949e">Sessions</text>

  <!-- Lines from modes to core -->
  <line x1="230" y1="154" x2="250" y2="190" stroke="#30363d" stroke-width="1" />
  <line x1="400" y1="154" x2="320" y2="190" stroke="#30363d" stroke-width="1" />
  <line x1="570" y1="154" x2="420" y2="190" stroke="#30363d" stroke-width="1" />

  <!-- Optional crates -->
  <rect x="560" y="210" width="200" height="56" rx="6" fill="#238636" fill-opacity="0.1" stroke="#238636" stroke-width="1" stroke-dasharray="4" />
  <text x="660" y="233" text-anchor="middle" font-family="monospace" font-size="12" fill="#3fb950">pawan-mcp</text>
  <text x="660" y="253" text-anchor="middle" font-family="monospace" font-size="10" fill="#8b949e">(MCP client, thulp-mcp)</text>

  <rect x="560" y="280" width="200" height="56" rx="6" fill="#238636" fill-opacity="0.1" stroke="#238636" stroke-width="1" stroke-dasharray="4" />
  <text x="660" y="303" text-anchor="middle" font-family="monospace" font-size="12" fill="#3fb950">pawan-aegis</text>
  <text x="660" y="323" text-anchor="middle" font-family="monospace" font-size="10" fill="#8b949e">(config resolution)</text>

  <!-- LLM providers -->
  <rect x="120" y="410" width="130" height="44" rx="6" fill="#161b22" stroke="#76b900" stroke-width="1" />
  <text x="185" y="437" text-anchor="middle" font-family="monospace" font-size="12" fill="#76b900">NVIDIA NIM</text>

  <rect x="270" y="410" width="100" height="44" rx="6" fill="#161b22" stroke="#30363d" />
  <text x="320" y="437" text-anchor="middle" font-family="monospace" font-size="12" fill="#8b949e">Ollama</text>

  <rect x="390" y="410" width="100" height="44" rx="6" fill="#161b22" stroke="#30363d" />
  <text x="440" y="437" text-anchor="middle" font-family="monospace" font-size="12" fill="#8b949e">OpenAI</text>

  <!-- MCP servers -->
  <rect x="560" y="410" width="200" height="44" rx="6" fill="#161b22" stroke="#30363d" />
  <text x="660" y="437" text-anchor="middle" font-family="monospace" font-size="12" fill="#8b949e">MCP Servers (daedra...)</text>

  <!-- Lines from core to providers -->
  <line x1="195" y1="370" x2="185" y2="410" stroke="#30363d" stroke-width="1" />
  <line x1="320" y1="370" x2="320" y2="410" stroke="#30363d" stroke-width="1" />
  <line x1="445" y1="370" x2="440" y2="410" stroke="#30363d" stroke-width="1" />

  <!-- Line from mcp crate to mcp servers -->
  <line x1="660" y1="336" x2="660" y2="410" stroke="#238636" stroke-width="1" stroke-dasharray="4" />

  <!-- Zero deps label -->
  <text x="320" y="390" text-anchor="middle" font-family="monospace" font-size="10" fill="#8b949e">zero dirmacs deps ↑ standalone</text>
</svg>
